<svg width="30" height="30" viewBox="0 0 30 30" fill="none" xmlns="http://www.w3.org/2000/svg">
<g clip-path="url(#clip0_117_23)">
<path d="M29.9842 15.2806C29.9842 14.0515 29.8821 13.1546 29.6613 12.2245H15.2988V17.772H23.7292C23.5593 19.1506 22.6415 21.2268 20.6018 22.6219L20.5732 22.8076L25.1144 26.2454L25.429 26.2761C28.3184 23.6683 29.9842 19.8315 29.9842 15.2806Z" fill="#4285F4"/>
<path d="M15.2988 29.8969C19.429 29.8969 22.8963 28.5681 25.4289 26.2761L20.6018 22.6219C19.31 23.5022 17.5763 24.1167 15.2988 24.1167C11.2535 24.1167 7.82016 21.5091 6.59626 17.9049L6.41687 17.9198L1.69493 21.4908L1.63318 21.6586C4.1487 26.5417 9.31578 29.8969 15.2988 29.8969Z" fill="#34A853"/>
<path d="M6.59634 17.905C6.2734 16.9749 6.08651 15.9782 6.08651 14.9485C6.08651 13.9187 6.2734 12.9221 6.57935 11.992L6.57079 11.7939L1.78968 8.16553L1.63325 8.23824C0.596487 10.2646 0.00158691 12.5401 0.00158691 14.9485C0.00158691 17.3569 0.596487 19.6323 1.63325 21.6587L6.59634 17.905Z" fill="#FBBC05"/>
<path d="M15.2988 5.78004C18.1712 5.78004 20.1088 6.99252 21.2137 8.00576L25.5309 3.8866C22.8794 1.47824 19.429 0 15.2988 0C9.31578 0 4.1487 3.35508 1.63318 8.23821L6.57927 11.992C7.82016 8.38775 11.2535 5.78004 15.2988 5.78004Z" fill="#EB4335"/>
</g>
<defs>
<clipPath id="clip0_117_23">
<rect width="30" height="30" rx="10" fill="white"/>
</clipPath>
</defs>
</svg>
