<svg width="306" height="128" viewBox="0 0 306 128" fill="none" xmlns="http://www.w3.org/2000/svg">
<path d="M16.768 35.248H38.336L36.736 43.312H15.168L16.768 35.248ZM13.824 53.68H38.272L36.544 62H1.856L10.816 17.2H44.672L42.944 25.52H19.456L13.824 53.68ZM59.518 62.512C56.8727 62.512 54.4193 61.9147 52.158 60.72C49.8967 59.4827 48.0833 57.712 46.718 55.408C45.3527 53.104 44.67 50.3307 44.67 47.088C44.67 44.1867 45.1393 41.52 46.078 39.088C47.0593 36.656 48.4247 34.544 50.174 32.752C51.9233 30.96 53.95 29.5733 56.254 28.592C58.558 27.568 61.0327 27.056 63.678 27.056C66.5367 27.056 68.99 27.5893 71.038 28.656C73.086 29.7227 74.6007 31.3867 75.582 33.648C76.606 35.8667 76.9687 38.7467 76.67 42.288C76.4567 46.3413 75.6247 49.904 74.174 52.976C72.7233 56.0053 70.7607 58.352 68.286 60.016C65.854 61.68 62.9313 62.512 59.518 62.512ZM62.59 54.256C64.5527 54.256 66.2807 53.7867 67.774 52.848C69.31 51.8667 70.5047 50.544 71.358 48.88C72.254 47.1733 72.702 45.1893 72.702 42.928C72.702 40.5813 71.998 38.7253 70.59 37.36C69.2247 35.9947 67.3047 35.312 64.83 35.312C62.91 35.312 61.182 35.8027 59.646 36.784C58.11 37.7227 56.894 39.0453 55.998 40.752C55.1447 42.416 54.718 44.3787 54.718 46.64C54.718 48.9867 55.4007 50.8427 56.766 52.208C58.174 53.5733 60.1153 54.256 62.59 54.256ZM69.438 62L70.782 55.152L73.022 44.912L74.366 34.672L75.774 27.568H85.758L78.91 62H69.438ZM100.698 62.512C97.6682 62.512 94.8095 62.1707 92.1215 61.488C89.4762 60.8053 87.4282 59.952 85.9775 58.928L89.8175 51.696C91.3108 52.6773 93.1242 53.4667 95.2575 54.064C97.4335 54.6613 99.6095 54.96 101.786 54.96C104.132 54.96 105.839 54.6613 106.906 54.064C107.972 53.4667 108.506 52.656 108.506 51.632C108.506 50.8213 108.058 50.224 107.162 49.84C106.266 49.4133 105.135 49.072 103.77 48.816C102.404 48.56 100.932 48.2613 99.3535 47.92C97.8175 47.5787 96.3455 47.1093 94.9375 46.512C93.5722 45.872 92.4415 44.976 91.5455 43.824C90.6922 42.6293 90.2655 41.072 90.2655 39.152C90.2655 36.5493 90.9908 34.352 92.4415 32.56C93.9348 30.768 95.9828 29.4027 98.5855 28.464C101.231 27.5253 104.218 27.056 107.546 27.056C109.935 27.056 112.26 27.312 114.522 27.824C116.783 28.336 118.703 29.04 120.282 29.936L116.698 37.232C115.076 36.208 113.37 35.5253 111.578 35.184C109.828 34.8 108.143 34.608 106.522 34.608C104.175 34.608 102.468 34.9493 101.402 35.632C100.378 36.272 99.8655 37.0613 99.8655 38C99.8655 38.8107 100.292 39.4507 101.146 39.92C102.042 40.3467 103.172 40.7093 104.538 41.008C105.903 41.264 107.375 41.5627 108.954 41.904C110.532 42.2027 112.004 42.672 113.37 43.312C114.735 43.9093 115.844 44.784 116.698 45.936C117.594 47.0453 118.042 48.56 118.042 50.48C118.042 53.0827 117.274 55.3013 115.738 57.136C114.244 58.928 112.196 60.272 109.594 61.168C106.991 62.064 104.026 62.512 100.698 62.512ZM123.897 74.928C122.147 74.928 120.419 74.6507 118.712 74.096C116.963 73.5413 115.576 72.816 114.552 71.92L119.16 64.752C119.886 65.392 120.697 65.904 121.593 66.288C122.531 66.672 123.555 66.864 124.665 66.864C125.945 66.864 127.054 66.544 127.993 65.904C128.974 65.264 129.934 64.176 130.873 62.64L133.625 58.288L134.521 57.264L152.697 27.568H162.553L139.641 64.304C137.934 66.992 136.291 69.104 134.713 70.64C133.177 72.2187 131.534 73.328 129.785 73.968C128.078 74.608 126.115 74.928 123.897 74.928ZM131.513 63.344L123.257 27.568H133.241L139.513 56.368L131.513 63.344Z" fill="#FFD100"/>
<path d="M51.384 87.36H72.952L71.224 95.68H49.72L51.384 87.36ZM47.288 112H36.856L45.816 67.2H79.672L77.944 75.52H54.52L47.288 112ZM77.091 112L83.939 77.568H93.859L87.011 112H77.091ZM90.595 72.768C88.8457 72.768 87.4377 72.2773 86.371 71.296C85.3043 70.272 84.771 69.0347 84.771 67.584C84.771 65.8773 85.3683 64.4693 86.563 63.36C87.8003 62.208 89.4003 61.632 91.363 61.632C93.1123 61.632 94.5203 62.1227 95.587 63.104C96.6963 64.0427 97.251 65.216 97.251 66.624C97.251 68.4587 96.6323 69.952 95.395 71.104C94.2003 72.2133 92.6003 72.768 90.595 72.768ZM123.159 77.056C126.103 77.056 128.599 77.6747 130.647 78.912C132.695 80.1067 134.145 81.8773 134.999 84.224C135.852 86.5707 135.937 89.472 135.255 92.928L131.415 112H121.431L125.143 93.568C125.655 91.0507 125.441 89.1093 124.503 87.744C123.607 86.3787 121.943 85.696 119.511 85.696C116.993 85.696 114.881 86.4213 113.175 87.872C111.511 89.3227 110.359 91.5413 109.719 94.528L106.263 112H96.2785L103.127 77.568H112.599L110.615 87.296L109.207 84.352C110.871 81.8347 112.919 80 115.351 78.848C117.825 77.6533 120.428 77.056 123.159 77.056ZM156.206 112.512C153.56 112.512 151.107 111.915 148.845 110.72C146.584 109.483 144.771 107.712 143.406 105.408C142.04 103.104 141.358 100.331 141.358 97.088C141.358 94.1867 141.827 91.52 142.766 89.088C143.747 86.656 145.112 84.544 146.862 82.752C148.611 80.96 150.638 79.5733 152.942 78.592C155.246 77.568 157.72 77.056 160.366 77.056C163.224 77.056 165.678 77.5893 167.726 78.656C169.774 79.7227 171.288 81.3867 172.27 83.648C173.294 85.8667 173.656 88.7467 173.358 92.288C173.144 96.3413 172.312 99.904 170.862 102.976C169.411 106.005 167.448 108.352 164.974 110.016C162.542 111.68 159.619 112.512 156.206 112.512ZM159.278 104.256C161.24 104.256 162.968 103.787 164.462 102.848C165.998 101.867 167.192 100.544 168.046 98.88C168.942 97.1733 169.39 95.1893 169.39 92.928C169.39 90.5813 168.686 88.7253 167.278 87.36C165.912 85.9947 163.992 85.312 161.518 85.312C159.598 85.312 157.87 85.8027 156.333 86.784C154.798 87.7227 153.582 89.0453 152.686 90.752C151.832 92.416 151.406 94.3787 151.406 96.64C151.406 98.9867 152.088 100.843 153.454 102.208C154.862 103.573 156.803 104.256 159.278 104.256ZM166.126 112L167.47 105.152L169.71 94.912L171.054 84.672L172.462 77.568H182.446L175.597 112H166.126ZM211.721 77.056C214.665 77.056 217.161 77.6747 219.209 78.912C221.257 80.1067 222.708 81.8773 223.561 84.224C224.414 86.5707 224.5 89.472 223.817 92.928L219.977 112H209.993L213.705 93.568C214.217 91.0507 214.004 89.1093 213.065 87.744C212.169 86.3787 210.505 85.696 208.073 85.696C205.556 85.696 203.444 86.4213 201.737 87.872C200.073 89.3227 198.921 91.5413 198.281 94.528L194.825 112H184.841L191.689 77.568H201.161L199.177 87.296L197.769 84.352C199.433 81.8347 201.481 80 203.913 78.848C206.388 77.6533 208.99 77.056 211.721 77.056ZM247.392 112.512C243.851 112.512 240.757 111.872 238.112 110.592C235.509 109.312 233.483 107.52 232.032 105.216C230.581 102.912 229.856 100.203 229.856 97.088C229.856 93.248 230.752 89.8347 232.544 86.848C234.336 83.8187 236.811 81.4293 239.968 79.68C243.125 77.9307 246.752 77.056 250.848 77.056C254.517 77.056 257.696 77.824 260.384 79.36C263.072 80.8533 265.056 82.9867 266.336 85.76L257.888 89.984C257.163 88.3627 256.139 87.1893 254.816 86.464C253.536 85.696 252 85.312 250.208 85.312C248.245 85.312 246.496 85.8027 244.96 86.784C243.424 87.7227 242.208 89.0453 241.312 90.752C240.416 92.416 239.968 94.3573 239.968 96.576C239.968 98.9227 240.651 100.8 242.016 102.208C243.424 103.573 245.408 104.256 247.968 104.256C249.717 104.256 251.317 103.893 252.768 103.168C254.219 102.4 255.435 101.227 256.416 99.648L263.776 104.256C262.155 106.859 259.893 108.885 256.992 110.336C254.133 111.787 250.933 112.512 247.392 112.512ZM284.895 112.512C281.311 112.512 278.196 111.872 275.551 110.592C272.948 109.312 270.922 107.52 269.471 105.216C268.02 102.912 267.295 100.203 267.295 97.088C267.295 93.248 268.148 89.8347 269.855 86.848C271.604 83.8187 273.994 81.4293 277.023 79.68C280.095 77.9307 283.615 77.056 287.583 77.056C290.954 77.056 293.855 77.696 296.287 78.976C298.719 80.2133 300.596 81.9627 301.919 84.224C303.284 86.4427 303.967 89.1093 303.967 92.224C303.967 93.12 303.903 94.016 303.775 94.912C303.69 95.808 303.562 96.6613 303.391 97.472H274.911L275.935 91.648H298.719L294.623 93.44C294.964 91.52 294.858 89.92 294.303 88.64C293.748 87.3173 292.852 86.3147 291.615 85.632C290.378 84.9067 288.884 84.544 287.135 84.544C284.959 84.544 283.103 85.0773 281.567 86.144C280.074 87.168 278.943 88.5973 278.175 90.432C277.407 92.2667 277.023 94.336 277.023 96.64C277.023 99.2853 277.748 101.269 279.199 102.592C280.692 103.872 282.932 104.512 285.919 104.512C287.668 104.512 289.354 104.235 290.975 103.68C292.596 103.125 293.983 102.336 295.135 101.312L299.295 107.904C297.29 109.483 295.028 110.656 292.511 111.424C290.036 112.149 287.498 112.512 284.895 112.512Z" fill="white"/>
<line y1="87" x2="29" y2="87" stroke="white" stroke-width="4"/>
<line x1="171" y1="42" x2="261" y2="42" stroke="#FFD100" stroke-width="4"/>
<ellipse cx="91" cy="67.5" rx="7" ry="6.5" fill="#FFD100"/>
</svg>
